HIERARCHY
ROOT pelvis
{
	OFFSET 0.003123 -0.351407 0.012037
	CHANNELS 6 Xposition Yposition Zposition Zrotation Yrotation Xrotation 
	JOINT left_hip
	{
		OFFSET 0.058189 -0.092763 -0.026001
		CHANNELS 3 Zrotation Yrotation Xrotation
		JOINT left_knee
		{
			OFFSET 0.054695 -0.378753 -0.009396
			CHANNELS 3 Zrotation Yrotation Xrotation
			JOINT left_ankle
			{
				OFFSET -0.043453 -0.403059 -0.031876
				CHANNELS 3 Zrotation Yrotation Xrotation
				JOINT left_foot
				{
					OFFSET 0.047257 -0.057997 0.118216
					CHANNELS 3 Zrotation Yrotation Xrotation
					End Site
					{
						OFFSET 0.000000 0.000000 0.000000
					}
				}
			}
		}
	}
	JOINT right_hip
	{
		OFFSET -0.063267 -0.103908 -0.021250
		CHANNELS 3 Zrotation Yrotation Xrotation
		JOINT right_knee
		{
			OFFSET -0.044210 -0.362380 -0.016824
			CHANNELS 3 Zrotation Yrotation Xrotation
			JOINT right_ankle
			{
				OFFSET 0.015417 -0.410728 -0.020192
				CHANNELS 3 Zrotation Yrotation Xrotation
				JOINT right_foot
				{
					OFFSET -0.038812 -0.058328 0.119049
					CHANNELS 3 Zrotation Yrotation Xrotation
					End Site
					{
						OFFSET 0.000000 0.000000 0.000000
					}
				}
			}
		}
	}
	JOINT spine_1
	{
		OFFSET -0.002763 0.109891 -0.027618
		CHANNELS 3 Zrotation Yrotation Xrotation
		JOINT spine_2
		{
			OFFSET 0.009448 0.131853 -0.005940
			CHANNELS 3 Zrotation Yrotation Xrotation
			JOINT spine_3
			{
				OFFSET -0.011330 0.052235 0.028447
				CHANNELS 3 Zrotation Yrotation Xrotation
				JOINT neck
				{
					OFFSET -0.012164 0.165167 -0.031615
					CHANNELS 3 Zrotation Yrotation Xrotation
					JOINT head
					{
						OFFSET 0.024783 0.160452 0.020737
						CHANNELS 3 Zrotation Yrotation Xrotation
						End Site
						{
							OFFSET 0.000000 0.000000 0.000000
						}
					}
				}
				JOINT left_collar
				{
					OFFSET 0.046364 0.084944 -0.007220
					CHANNELS 3 Zrotation Yrotation Xrotation
					JOINT left_shoulder
					{
						OFFSET 0.119239 0.057728 -0.015461
						CHANNELS 3 Zrotation Yrotation Xrotation
						JOINT left_elbow
						{
							OFFSET 0.254123 -0.072151 -0.042459
							CHANNELS 3 Zrotation Yrotation Xrotation
							JOINT left_wrist
							{
								OFFSET 0.251987 0.023221 -0.002472
								CHANNELS 3 Zrotation Yrotation Xrotation
								JOINT left_index_1
								{
									OFFSET 0.101902 -0.008688 0.019351
									CHANNELS 3 Zrotation Yrotation Xrotation
									JOINT left_index_2
									{
										OFFSET 0.030149 -0.011154 0.001151
										CHANNELS 3 Zrotation Yrotation Xrotation
										JOINT left_index_3
										{
											OFFSET 0.006504 -0.021577 -0.002433
											CHANNELS 3 Zrotation Yrotation Xrotation
											End Site
											{
												OFFSET 0.000000 0.000000 0.000000
											}
										}
									}
								}
								JOINT left_middle_1
								{
									OFFSET 0.109398 -0.006328 -0.003981
									CHANNELS 3 Zrotation Yrotation Xrotation
									JOINT left_middle_2
									{
										OFFSET 0.026472 -0.015218 -0.004641
										CHANNELS 3 Zrotation Yrotation Xrotation
										JOINT left_middle_3
										{
											OFFSET 0.005022 -0.023347 -0.001911
											CHANNELS 3 Zrotation Yrotation Xrotation
											End Site
											{
												OFFSET 0.000000 0.000000 0.000000
											}
										}
									}
								}
								JOINT left_pinky_1
								{
									OFFSET 0.084047 -0.014539 -0.043750
									CHANNELS 3 Zrotation Yrotation Xrotation
									JOINT left_pinky_2
									{
										OFFSET 0.012124 -0.014448 -0.005375
										CHANNELS 3 Zrotation Yrotation Xrotation
										JOINT left_pinky_3
										{
											OFFSET 0.003798 -0.018853 0.000167
											CHANNELS 3 Zrotation Yrotation Xrotation
											End Site
											{
												OFFSET 0.000000 0.000000 0.000000
											}
										}
									}
								}
								JOINT left_ring_1
								{
									OFFSET 0.097444 -0.009268 -0.027345
									CHANNELS 3 Zrotation Yrotation Xrotation
									JOINT left_ring_2
									{
										OFFSET 0.023561 -0.016057 -0.001895
										CHANNELS 3 Zrotation Yrotation Xrotation
										JOINT left_ring_3
										{
											OFFSET 0.004257 -0.023548 0.000814
											CHANNELS 3 Zrotation Yrotation Xrotation
											End Site
											{
												OFFSET 0.000000 0.000000 0.000000
											}
										}
									}
								}
								JOINT left_thumb_1
								{
									OFFSET 0.040636 -0.017977 0.025611
									CHANNELS 3 Zrotation Yrotation Xrotation
									JOINT left_thumb_2
									{
										OFFSET 0.021637 -0.017639 0.011623
										CHANNELS 3 Zrotation Yrotation Xrotation
										JOINT left_thumb_3
										{
											OFFSET 0.024002 -0.008356 0.006548
											CHANNELS 3 Zrotation Yrotation Xrotation
											End Site
											{
												OFFSET 0.000000 0.000000 0.000000
											}
										}
									}
								}
							}
						}
					}
				}
				JOINT right_collar
				{
					OFFSET -0.047695 0.084339 -0.013400
					CHANNELS 3 Zrotation Yrotation Xrotation
					JOINT right_shoulder
					{
						OFFSET -0.102578 0.053524 -0.012669
						CHANNELS 3 Zrotation Yrotation Xrotation
						JOINT right_elbow
						{
							OFFSET -0.271150 -0.036492 -0.026467
							CHANNELS 3 Zrotation Yrotation Xrotation
							JOINT right_wrist
							{
								OFFSET -0.249267 -0.004533 -0.015325
								CHANNELS 3 Zrotation Yrotation Xrotation
								JOINT right_index_1
								{
									OFFSET -0.099881 -0.011783 0.019600
									CHANNELS 3 Zrotation Yrotation Xrotation
									JOINT right_index_2
									{
										OFFSET -0.030148 -0.011154 0.001151
										CHANNELS 3 Zrotation Yrotation Xrotation
										JOINT right_index_3
										{
											OFFSET -0.006505 -0.021577 -0.002432
											CHANNELS 3 Zrotation Yrotation Xrotation
											End Site
											{
												OFFSET 0.000000 0.000000 0.000000
											}
										}
									}
								}
								JOINT right_middle_1
								{
									OFFSET -0.107376 -0.009422 -0.003734
									CHANNELS 3 Zrotation Yrotation Xrotation
									JOINT right_middle_2
									{
										OFFSET -0.026472 -0.015218 -0.004641
										CHANNELS 3 Zrotation Yrotation Xrotation
										JOINT right_middle_3
										{
											OFFSET -0.005022 -0.023347 -0.001911
											CHANNELS 3 Zrotation Yrotation Xrotation
											End Site
											{
												OFFSET 0.000000 0.000000 0.000000
											}
										}
									}
								}
								JOINT right_pinky_1
								{
									OFFSET -0.082027 -0.017634 -0.043503
									CHANNELS 3 Zrotation Yrotation Xrotation
									JOINT right_pinky_2
									{
										OFFSET -0.012123 -0.014448 -0.005374
										CHANNELS 3 Zrotation Yrotation Xrotation
										JOINT right_pinky_3
										{
											OFFSET -0.003798 -0.018852 0.000167
											CHANNELS 3 Zrotation Yrotation Xrotation
											End Site
											{
												OFFSET 0.000000 0.000000 0.000000
											}
										}
									}
								}
								JOINT right_ring_1
								{
									OFFSET -0.095423 -0.012362 -0.027099
									CHANNELS 3 Zrotation Yrotation Xrotation
									JOINT right_ring_2
									{
										OFFSET -0.023561 -0.016057 -0.001895
										CHANNELS 3 Zrotation Yrotation Xrotation
										JOINT right_ring_3
										{
											OFFSET -0.004257 -0.023548 0.000816
											CHANNELS 3 Zrotation Yrotation Xrotation
											End Site
											{
												OFFSET 0.000000 0.000000 0.000000
											}
										}
									}
								}
								JOINT right_thumb_1
								{
									OFFSET -0.038613 -0.021074 0.025861
									CHANNELS 3 Zrotation Yrotation Xrotation
									JOINT right_thumb_2
									{
										OFFSET -0.021636 -0.017639 0.011623
										CHANNELS 3 Zrotation Yrotation Xrotation
										JOINT right_thumb_3
										{
											OFFSET -0.024004 -0.008353 0.006547
											CHANNELS 3 Zrotation Yrotation Xrotation
											End Site
											{
												OFFSET 0.000000 0.000000 0.000000
											}
										}
									}
								}
							}
						}
					}
				}
			}
		}
	}
}
MOTION
Frames: 6
Frame Time: 0.050000
0.447586 0.649704 0.915268 -143.812026 -59.399343 117.553408 -45.266911 15.331461 -63.260953 139.618883 26.043161 30.064053 -77.343573 24.852494 109.325428 0.000000 0.000000 0.000000 -32.466137 20.948592 -29.248029 118.213156 47.640662 28.045750 -101.570743 -40.907537 124.741042 0.000000 0.000000 0.000000 16.836755 4.434975 43.303250 8.671600 0.657704 -19.757769 -14.075818 -38.650694 34.979248 1.762884 0.441171 -3.312747 0.000000 0.000000 0.000000 15.729233 -6.684136 18.383911 40.925897 -65.774363 -5.300006 35.370010 2.471843 7.732406 22.425396 -11.140909 -43.746608 2.823064 -12.570192 -0.062555 9.055989 -33.146253 -32.313707 0.000000 0.000000 0.000000 -10.205085 -24.565702 -4.534885 11.539488 -16.595082 -29.872371 0.000000 0.000000 0.000000 4.649597 -29.228389 -26.725909 8.084907 -1.070481 -2.234709 0.000000 0.000000 0.000000 -11.993635 -24.216094 -5.622696 20.015113 -4.546304 -21.912361 0.000000 0.000000 0.000000 55.441693 1.007168 -8.717756 -32.016925 -10.198894 10.214018 0.000000 0.000000 0.000000 -14.544224 22.906573 8.303196 -19.073807 45.823006 -31.346062 -25.702121 44.436029 -31.787222 0.388487 11.871525 7.198551 20.058199 3.600535 -3.141374 1.666967 -0.634756 -1.879699 0.000000 0.000000 0.000000 17.109251 9.642835 -9.127862 14.017393 -3.255570 -5.744945 0.000000 0.000000 0.000000 -2.289962 25.376708 -15.731477 -174.321862 -34.311271 -1.185579 0.000000 0.000000 0.000000 20.198729 10.884118 -8.707401 42.378867 1.700943 -20.321256 0.000000 0.000000 0.000000 -14.259199 -5.257306 0.322410 18.381204 3.300781 4.946918 0.000000 0.000000 0.000000 
0.447586 0.649704 0.915268 -143.812026 -59.399343 117.553408 -45.266911 15.331461 -63.260953 139.618883 26.043161 30.064053 -77.343573 24.852494 109.325428 0.000000 0.000000 0.000000 -32.466137 20.948592 -29.248029 118.213156 47.640662 28.045750 -101.570743 -40.907537 124.741042 0.000000 0.000000 0.000000 16.836755 4.434975 43.303250 8.919448 0.801862 -19.402868 -14.000236 -38.700321 34.312226 1.762719 0.465508 -3.092298 0.000000 0.000000 0.000000 15.709544 -7.023950 18.110871 40.194344 -65.673229 -5.352702 35.251941 1.716570 7.438295 22.227507 -11.328459 -43.792668 2.305402 -13.025548 -0.010963 7.543724 -33.088694 -31.146798 0.000000 0.000000 0.000000 -11.008106 -24.270535 -4.272886 11.786955 -16.985965 -30.788894 0.000000 0.000000 0.000000 3.109750 -29.596898 -26.437692 7.986904 -1.646637 -3.853530 0.000000 0.000000 0.000000 -12.035727 -24.773521 -5.833000 18.730035 -4.870696 -21.736317 0.000000 0.000000 0.000000 54.959069 1.045237 -8.853406 -31.909247 -9.745762 10.223171 0.000000 0.000000 0.000000 -14.501649 22.775614 8.440600 -19.166013 45.801305 -31.273035 -25.470010 44.530835 -31.612134 0.199466 11.900084 7.143078 19.425353 3.806162 -3.123742 0.808364 -0.307366 -2.153794 0.000000 0.000000 0.000000 17.210016 9.697335 -9.181039 14.089495 -3.214900 -5.843446 0.000000 0.000000 0.000000 -1.924970 25.465468 -15.871131 -170.568990 -33.662073 -0.072283 0.000000 0.000000 0.000000 19.312344 10.685193 -8.472814 37.052158 -0.382634 -18.834432 0.000000 0.000000 0.000000 -14.675552 -4.762159 -0.624165 18.689408 3.120987 5.051611 0.000000 0.000000 0.000000 
0.447586 0.649704 0.915268 -143.812026 -59.399343 117.553408 -45.266911 15.331461 -63.260953 139.614585 26.041791 30.063525 -77.336402 24.853095 109.323331 0.000000 0.000000 0.000000 -32.466137 20.948592 -29.248029 118.203105 47.635401 28.045470 -101.539592 -40.913540 124.723030 0.000000 0.000000 0.000000 16.836755 4.434975 43.303250 8.671600 0.657704 -19.757769 -13.619704 -38.361246 34.995721 1.468724 0.383188 -3.855342 0.000000 0.000000 0.000000 15.570883 -6.844637 18.264698 41.721810 -65.788326 -5.877140 35.454867 2.778174 7.721981 22.301686 -11.403800 -44.317958 2.964290 -12.981111 -0.048687 7.660346 -33.863297 -31.545160 0.000000 0.000000 0.000000 -11.461611 -25.571387 -4.241833 10.636305 -19.403643 -33.187538 0.000000 0.000000 0.000000 2.958216 -30.055124 -26.679123 6.973837 -2.178983 -5.410388 0.000000 0.000000 0.000000 -11.962440 -24.992786 -5.852353 18.245013 -5.702047 -23.334881 0.000000 0.000000 0.000000 55.182129 0.607423 -8.963621 -31.886496 -9.649725 10.255276 0.000000 0.000000 0.000000 -14.863574 22.021034 8.287117 -19.521002 46.047942 -31.854039 -25.649210 44.461325 -31.777606 0.629441 12.019219 7.264121 19.316845 3.642901 -3.049025 -1.424303 0.319502 -2.271894 0.000000 0.000000 0.000000 15.798635 9.623384 -8.766813 13.879325 -3.234434 -6.110998 0.000000 0.000000 0.000000 -2.115647 25.832592 -15.892490 -172.173863 -32.308830 0.942293 0.000000 0.000000 0.000000 18.561268 10.060739 -8.095465 31.984795 -1.898860 -17.338271 0.000000 0.000000 0.000000 -14.940606 -4.360633 -1.350589 19.498015 2.889186 5.300395 0.000000 0.000000 0.000000 
0.447586 0.649704 0.915268 -143.812026 -59.399343 117.553408 -45.256511 15.332510 -63.254167 139.612008 26.033772 30.071132 -77.364126 24.851359 109.322969 0.000000 0.000000 0.000000 -32.466137 20.948592 -29.248029 118.203105 47.635401 28.045470 -101.539592 -40.913540 124.723030 0.000000 0.000000 0.000000 16.836755 4.434975 43.303250 8.919448 0.801862 -19.402868 -13.999769 -38.688340 34.353295 1.770958 0.454206 -3.170246 0.000000 0.000000 0.000000 15.275137 -7.064405 18.595486 41.503391 -65.138490 -6.328489 35.282541 1.799766 7.412903 22.136559 -11.869338 -44.494653 2.238866 -12.514578 0.020354 6.391110 -33.422396 -30.293834 0.000000 0.000000 0.000000 -12.201294 -25.014606 -3.918355 9.958139 -19.297551 -32.688780 0.000000 0.000000 0.000000 2.544835 -29.628052 -26.137851 6.324055 -2.312099 -5.719146 0.000000 0.000000 0.000000 -12.316918 -24.380766 -5.506840 17.550265 -5.987231 -23.390603 0.000000 0.000000 0.000000 54.576346 0.409233 -9.150261 -31.779044 -9.667916 10.223030 0.000000 0.000000 0.000000 -14.508239 22.719087 8.419924 -19.201104 45.828398 -31.324668 -25.597727 44.444890 -31.621312 0.377532 12.074577 6.937715 19.188947 3.604452 -2.998009 -1.061656 0.317507 -2.433195 0.000000 0.000000 0.000000 15.396790 9.409050 -8.566099 9.666634 -2.474222 -5.257159 0.000000 0.000000 0.000000 -2.278723 26.009776 -16.053600 -171.605282 -33.357715 0.576833 0.000000 0.000000 0.000000 16.917291 9.712102 -7.701446 26.800004 -2.768102 -16.341767 0.000000 0.000000 0.000000 -15.096056 -4.233135 -1.667920 19.804885 3.468197 5.316420 0.000000 0.000000 0.000000 
0.447586 0.649704 0.915268 -143.812026 -59.399343 117.553408 -45.256511 15.332510 -63.254167 139.612008 26.033772 30.071132 -77.364126 24.851359 109.322969 0.000000 0.000000 0.000000 -32.466137 20.948592 -29.248029 118.203105 47.635401 28.045470 -101.539592 -40.913540 124.723030 0.000000 0.000000 0.000000 16.836755 4.434975 43.303250 8.919448 0.801862 -19.402868 -13.546446 -38.394982 34.371157 1.058052 0.493465 -3.426052 0.000000 0.000000 0.000000 15.118628 -7.226689 18.481856 42.233020 -65.093079 -6.855356 35.348014 1.849929 7.353645 21.983567 -11.591557 -44.240451 2.497766 -12.119430 -0.067349 8.926033 -32.359298 -31.780293 0.000000 0.000000 0.000000 -12.113597 -25.423213 -4.057249 9.099658 -19.220385 -32.231662 0.000000 0.000000 0.000000 2.836254 -30.792327 -27.357781 5.517127 -1.711921 -3.945297 0.000000 0.000000 0.000000 -12.182672 -24.722511 -5.755900 17.244878 -6.537108 -24.498477 0.000000 0.000000 0.000000 54.479996 0.625782 -9.151955 -32.081214 -9.758344 10.358709 0.000000 0.000000 0.000000 -14.827961 21.833672 8.402335 -19.484362 46.153539 -31.878249 -25.820168 44.534153 -31.809747 0.698487 11.633223 7.460235 18.518865 3.826176 -3.004054 -1.778588 0.552766 -2.602582 0.000000 0.000000 0.000000 13.350247 9.386155 -8.053446 6.188995 -1.887886 -4.552735 0.000000 0.000000 0.000000 -4.038800 24.872533 -17.154408 -158.190765 -40.812203 -1.424957 0.000000 0.000000 0.000000 8.516853 8.026906 -5.622384 7.595164 -3.017875 -10.828144 0.000000 0.000000 0.000000 -15.404860 -3.686259 -2.663041 19.954557 3.430399 5.382133 0.000000 0.000000 0.000000 
0.447586 0.649704 0.915268 -143.812026 -59.399343 117.553408 -45.256511 15.332510 -63.254167 139.612008 26.033772 30.071132 -77.364126 24.851359 109.322969 0.000000 0.000000 0.000000 -32.422194 20.926066 -29.224020 118.204893 47.603479 28.087402 -101.658902 -40.910397 124.718793 0.000000 0.000000 0.000000 16.836755 4.434975 43.303250 8.671600 0.657704 -19.757769 -13.010680 -38.396156 34.761661 0.682059 0.460046 -4.098717 0.000000 0.000000 0.000000 14.630616 -6.723321 19.036019 44.163697 -65.250643 -7.641442 35.446787 2.942036 7.593883 22.327835 -11.391947 -44.446333 3.580956 -12.540840 -0.161260 8.843199 -31.405042 -31.137734 0.000000 0.000000 0.000000 -11.374022 -25.481228 -4.273603 10.643523 -19.019953 -32.733238 0.000000 0.000000 0.000000 2.531425 -31.451965 -27.657421 6.398397 -1.926890 -4.545109 0.000000 0.000000 0.000000 -12.100572 -25.073777 -5.844494 17.790227 -6.388993 -24.574898 0.000000 0.000000 0.000000 55.466497 0.559298 -9.063628 -32.121395 -9.604275 10.392276 0.000000 0.000000 0.000000 -15.554839 21.386891 8.644396 -21.092649 46.540527 -33.616264 -24.308509 43.656466 -30.241487 0.394995 12.755450 7.766686 19.238587 4.261459 -3.483700 -0.209185 0.286517 -2.966005 0.000000 0.000000 0.000000 12.695317 9.237463 -7.893557 4.095777 -1.425678 -5.041121 0.000000 0.000000 0.000000 -3.625890 24.099765 -17.911225 -117.957066 -54.356817 -59.025446 0.000000 0.000000 0.000000 7.511681 7.790561 -5.376339 4.186258 -2.969051 -10.462618 0.000000 0.000000 0.000000 -16.194425 -2.790882 -4.599875 19.432938 3.059287 5.328383 0.000000 0.000000 0.000000 
